<svg xmlns="http://www.w3.org/2000/svg" width="24.304" height="24.439" viewBox="0 0 24.304 24.439">
  <g id="Group_4506" data-name="Group 4506" transform="translate(-0.106)">
    <path id="Path_5419" data-name="Path 5419" d="M13.48,0V4.235a8,8,0,0,1,0,15.969V24.43a12.229,12.229,0,0,0,0-24.42Z" transform="translate(-0.616)" fill="#9a9a9a"/>
    <path id="Path_5420" data-name="Path 5420" d="M14.094,12.22a2.108,2.108,0,0,0-2.108-2.108H4.517a8.042,8.042,0,0,1,7.336-5.886V0a12.229,12.229,0,0,0,0,24.439V20.214a8.032,8.032,0,0,1-7.336-5.9h7.469s2.1-.932,2.108-2.089Z" fill="#9a9a9a"/>
  </g>
</svg>
