<svg xmlns="http://www.w3.org/2000/svg" width="214.45" height="464.357" viewBox="0 0 214.45 464.357">
  <path id="Image_Place_here" data-name="Image Place here" d="M192.719,464.357H21.731A21.755,21.755,0,0,1,0,442.626V21.731A21.756,21.756,0,0,1,21.731,0H44.756a3.9,3.9,0,0,1,2.991,2.957c.094.414.192.955.306,1.582.219,1.206.491,2.7.9,4.213.523,1.956,2.833,8.342,10.6,8.422,2.928.03,21.184.037,35.983.037,27.224,0,58.462-.021,59.924-.037,7.763-.08,10.073-6.467,10.6-8.422.405-1.515.678-3.013.9-4.216.114-.63.212-1.168.305-1.579A3.77,3.77,0,0,1,170.215,0h22.5A21.756,21.756,0,0,1,214.45,21.731V442.626A21.755,21.755,0,0,1,192.719,464.357Z" fill="#e3e3e3"/>
</svg>
